<svg width="36.000000" height="36.000000" viewBox="0 0 36 36" fill="none" xmlns="http://www.w3.org/2000/svg" xmlns:xlink="http://www.w3.org/1999/xlink">
	<desc>
			Created with Pixso.
	</desc>
	<defs/>
	<rect id="Frame 34" width="36.000000" height="36.000000" fill="#FFFFFF" fill-opacity="0"/>
	<path id="Vector" d="M27.2216 9.35938L22.6826 4.82031C22.1904 4.32812 21.4794 4 20.8232 4L9.66693 4C8.19037 4.05469 7.04193 5.20312 7.04193 6.67969L7.04193 13.0781C6.71381 13.0781 6.38568 13.0234 5.67474 12.8047C5.62006 12.8047 5.51068 12.8047 5.40131 12.8047C5.12787 12.8047 4.85443 12.9141 4.69037 13.0781C3.70599 14.1172 3.76068 14.0625 2.39349 14.4453C2.01068 14.5547 1.73724 14.8281 1.62787 15.2109C1.29974 16.5781 1.29974 16.5234 0.315369 17.5078C0.0419312 17.7812 -0.0674438 18.2188 0.0419312 18.6016C0.424744 19.9141 0.424744 19.9141 0.0419312 21.2266C-0.0674438 21.6094 0.0419312 22.0469 0.315369 22.3203C1.29974 23.3047 1.29974 23.3047 1.62787 24.6172C1.73724 25 2.01068 25.2734 2.39349 25.3828C2.50287 25.4375 2.55756 25.4375 2.66693 25.4375L2.66693 31.125C2.66693 31.4531 2.77631 31.7266 3.04974 31.8906C3.32318 32.0547 3.65131 32.0547 3.92474 31.9453L7.04193 30.3594L10.1044 31.9453C10.2685 32 10.3779 32 10.5419 32L25.4169 32C26.8388 32 28.0419 30.8516 28.0419 29.4297L28.0419 11.2188C28.0419 10.5625 27.7138 9.85156 27.2216 9.35938ZM21.0419 5.80469C21.1513 5.85938 21.3154 5.91406 21.4247 6.02344L26.0185 10.6172C26.1279 10.7266 26.1826 10.8906 26.2372 11.0547L21.0419 11.0547L21.0419 5.80469ZM1.84662 21.3359C2.12006 20.1328 2.12006 19.6953 1.84662 18.4922C2.66693 17.6172 2.88568 17.2344 3.21381 16.0312C4.41693 15.7031 4.74506 15.4844 5.62006 14.6094C6.16693 14.7734 6.54974 14.8281 7.04193 14.8281C7.47943 14.8281 7.86224 14.7734 8.40912 14.6094C9.22943 15.4844 9.61224 15.7031 10.8154 16.0312C11.1435 17.2344 11.3076 17.5625 12.1826 18.4922C11.8544 19.6953 11.8544 20.1328 12.1826 21.3359C11.3622 22.2109 11.1435 22.5938 10.8154 23.7969C9.99506 24.0156 9.50287 24.1797 8.73724 24.8359C8.19037 24.6172 7.64349 24.5078 7.04193 24.5078C6.38568 24.5078 5.83881 24.6172 5.29193 24.8906C4.52631 24.2344 4.03412 24.0156 3.21381 23.7969C2.88568 22.5938 2.72162 22.2656 1.84662 21.3359ZM7.42474 28.6094C7.15131 28.5 6.87787 28.5 6.60443 28.6094L4.41693 29.7578L4.41693 26.4219C4.41693 26.4766 4.41693 26.4766 4.41693 26.4766C4.63568 26.6953 4.90912 26.75 5.12787 26.75C5.34662 26.75 5.51068 26.6953 5.72943 26.6406C6.11224 26.3672 6.54974 26.2578 7.04193 26.2578C7.47943 26.2578 7.91693 26.3672 8.29974 26.5859C8.51849 26.75 8.68256 26.75 8.90131 26.75C9.17474 26.75 9.39349 26.6953 9.61224 26.4766C9.61224 26.4766 9.61224 26.4766 9.66693 26.4219L9.66693 29.7578L7.42474 28.6094ZM26.2919 29.4297C26.2919 29.8672 25.8544 30.3047 25.4169 30.3047L11.4169 30.3047L11.4169 25.4375C11.4716 25.4375 11.5263 25.4375 11.6357 25.3828C12.0185 25.2734 12.2919 25 12.4013 24.6172C12.7294 23.25 12.7294 23.3047 13.7138 22.3203C13.9872 22.0469 14.0966 21.6094 13.9872 21.2266C13.6044 19.9141 13.6044 19.9141 13.9872 18.6016C14.0966 18.2188 13.9872 17.7812 13.7138 17.5078C12.7294 16.5234 12.7294 16.5234 12.4013 15.2109C12.2919 14.8281 12.0185 14.5547 11.6357 14.4453C10.3232 14.0625 10.3232 14.1172 9.33881 13.0781C9.17474 12.9141 8.95599 12.8594 8.79193 12.8047L8.79193 6.67969C8.79193 6.1875 9.17474 5.75 9.66693 5.75L19.2919 5.75L19.2919 11.4922C19.2919 12.2031 19.8388 12.75 20.6044 12.75L26.2919 12.75L26.2919 29.4297Z" fill="#5C8EE6" fill-opacity="1.000000" fill-rule="evenodd"/>
</svg>
