<svg width="15.988403" height="16.019653" viewBox="0 0 15.9884 16.0197" fill="none" xmlns="http://www.w3.org/2000/svg" xmlns:xlink="http://www.w3.org/1999/xlink">
	<desc>
			Created with Pixso.
	</desc>
	<defs/>
	<path id="Vector" d="M15.9688 12.0822L15.2188 15.2384C15.125 15.7072 14.75 16.0197 14.2812 16.0197C6.40625 15.9884 0 9.58215 0 1.70715C0 1.2384 0.28125 0.863403 0.75 0.769653L3.90625 0.0196533C4.34375 -0.0740967 4.8125 0.175903 5 0.582153L6.46875 3.9884C6.625 4.39465 6.53125 4.8634 6.1875 5.1134L4.5 6.4884C5.5625 8.64465 7.3125 10.3947 9.5 11.4572L10.875 9.76965C11.125 9.45715 11.5938 9.33215 12 9.4884L15.4062 10.9572C15.8125 11.1759 16.0625 11.6447 15.9688 12.0822Z" fill="#5C8EE6" fill-opacity="1.000000" fill-rule="evenodd"/>
</svg>
