<svg width="0" height="0" class="hidden">
  <symbol fill="none" xmlns="http://www.w3.org/2000/svg" xmlns:xlink="http://www.w3.org/1999/xlink" viewBox="0 0 24 24" id="inst">
    <desc>Created with Pixso.</desc>
    <defs></defs>
    <rect id="inst" width="24.000000" height="24.000000" fill="#FFFFFF" fill-opacity="0"></rect>
    <path id="Vector" d="M8.44446 4C5.99377 4 4 5.99365 4 8.44434L4 15.5557C4 18.0063 5.99377 20 8.44446 20L15.5555 20C18.0062 20 20 18.0063 20 15.5557L20 8.44434C20 5.99365 18.0062 4 15.5555 4L8.44446 4ZM8.44446 5.77783L15.5555 5.77783C17.0258 5.77783 18.2222 6.97412 18.2222 8.44434L18.2222 15.5557C18.2222 17.0259 17.0258 18.2222 15.5555 18.2222L8.44446 18.2222C6.97424 18.2222 5.77777 17.0259 5.77777 15.5557L5.77777 8.44434C5.77777 6.97412 6.97424 5.77783 8.44446 5.77783ZM16.4445 6.6665C16.2087 6.6665 15.9826 6.76025 15.8159 6.92725C15.6492 7.09375 15.5555 7.31982 15.5555 7.55566C15.5555 7.7915 15.6492 8.01758 15.8159 8.18408C15.9826 8.35059 16.2087 8.44434 16.4445 8.44434C16.6802 8.44434 16.9063 8.35059 17.073 8.18408C17.2397 8.01758 17.3333 7.7915 17.3333 7.55566C17.3333 7.31982 17.2397 7.09375 17.073 6.92725C16.9063 6.76025 16.6802 6.6665 16.4445 6.6665ZM12 7.55566C9.54935 7.55566 7.55554 9.54932 7.55554 12C7.55554 14.4507 9.54935 16.4443 12 16.4443C14.4507 16.4443 16.4445 14.4507 16.4445 12C16.4445 9.54932 14.4507 7.55566 12 7.55566ZM12 9.3335C13.4702 9.3335 14.6667 10.5298 14.6667 12C14.6667 13.4702 13.4702 14.6665 12 14.6665C10.5298 14.6665 9.33334 13.4702 9.33334 12C9.33334 10.5298 10.5298 9.3335 12 9.3335Z" fill="#5C8EE6" fill-opacity="1.000000" fill-rule="nonzero"></path>
  </symbol>
  <symbol fill="none" xmlns="http://www.w3.org/2000/svg" xmlns:xlink="http://www.w3.org/1999/xlink" viewBox="0 0 24 24" id="mail">
    <desc>Created with Pixso.</desc>
    <defs></defs>
    <rect id="mail" width="24.000000" height="24.000000" fill="#FFFFFF" fill-opacity="0"></rect>
    <path id="Vector" d="M4.3125 9.96875C5.03125 10.5312 5.9375 11.2188 9.125 13.5312C9.75 14 10.9062 15.0312 12 15.0312C13.125 15.0312 14.25 14 14.9062 13.5312C18.0938 11.2188 19 10.5312 19.7188 9.96875C19.8438 9.875 20 9.96875 20 10.125L20 16.5C20 17.3438 19.3438 18 18.5 18L5.5 18C4.6875 18 4 17.3438 4 16.5L4 10.125C4 9.96875 4.1875 9.875 4.3125 9.96875ZM12 14C11.2812 14.0312 10.25 13.0938 9.71875 12.7188C5.5625 9.71875 5.25 9.4375 4.3125 8.6875C4.125 8.5625 4 8.34375 4 8.09375L4 7.5C4 6.6875 4.6875 6 5.5 6L18.5 6C19.3438 6 20 6.6875 20 7.5L20 8.09375C20 8.34375 19.9062 8.5625 19.7188 8.6875C18.7812 9.4375 18.4688 9.71875 14.3125 12.7188C13.7812 13.0938 12.75 14.0312 12 14Z" fill="#5C8EE6" fill-opacity="1.000000" fill-rule="evenodd"></path>
  </symbol>
  <symbol fill="none" xmlns="http://www.w3.org/2000/svg" xmlns:xlink="http://www.w3.org/1999/xlink" viewBox="0 0 24 24" id="position">
    <desc>Created with Pixso.</desc>
    <defs></defs>
    <rect id="mark" width="24.000000" height="24.000000" fill="#FFFFFF" fill-opacity="0"></rect>
    <path id="Vector" d="M12.625 19.6875C12.3438 20.125 11.6875 20.125 11.4062 19.6875C6.84375 13.125 6 12.4375 6 10C6 6.6875 8.6875 4 12 4C15.3438 4 18 6.6875 18 10C18 12.4375 17.1875 13.125 12.625 19.6875ZM12 12.5C13.4062 12.5 14.5 11.4062 14.5 10C14.5 8.625 13.4062 7.5 12 7.5C10.625 7.5 9.5 8.625 9.5 10C9.5 11.4062 10.625 12.5 12 12.5Z" fill="#5C8EE6" fill-opacity="1.000000" fill-rule="evenodd"></path>
  </symbol>
  <symbol fill="none" xmlns="http://www.w3.org/2000/svg" xmlns:xlink="http://www.w3.org/1999/xlink" viewBox="0 0 24 24" id="vk">
    <desc>Created with Pixso.</desc>
    <defs></defs>
    <rect id="vk" width="24.000000" height="24.000000" fill="#FFFFFF" fill-opacity="0"></rect>
    <path id="Vector" d="M21.4439 16.7568C20.6455 15.3198 18.5889 13.5933 17.7398 12.8423C17.5074 12.6362 17.4825 12.2808 17.694 12.0532C19.3144 10.312 20.6104 8.31104 21.0565 7.10254C21.2533 6.56836 20.8459 6.00391 20.2719 6.00391L18.6044 6.00391C18.0548 6.00391 17.7332 6.20117 17.5799 6.51562C16.2332 9.2749 15.078 10.4692 14.2694 11.167C13.8167 11.5581 13.1107 11.2344 13.1107 10.6392C13.1107 9.49316 13.1107 8.01123 13.1107 6.96045C13.1107 6.45117 12.6939 6.03857 12.1799 6.03857L9.13379 6.00391C8.75037 6.00391 8.53131 6.43799 8.76147 6.74219L9.2644 7.46436C9.45367 7.71436 9.55585 8.01904 9.55585 8.33105L9.55322 11.5825C9.55322 12.1479 8.86768 12.4243 8.46069 12.0283C7.0838 10.6875 5.8891 7.94922 5.45898 6.63965C5.33459 6.26074 4.97961 6.00488 4.57709 6.00391L2.93451 6C2.3183 6 1.86774 6.58447 2.03528 7.17236C3.53607 12.4404 6.61554 17.4521 12.1035 17.9956C12.6442 18.0488 13.1107 17.6133 13.1107 17.0747L13.1107 15.3657C13.1107 14.8755 13.495 14.4546 13.9891 14.4419C14.0064 14.4414 14.0237 14.4414 14.041 14.4414C15.4926 14.4414 17.1182 16.5542 17.687 17.5425C17.8505 17.8267 18.1561 18 18.4867 18L20.6962 18C21.3408 18 21.7545 17.3164 21.4439 16.7568Z" fill="#5C8EE6" fill-opacity="1.000000" fill-rule="nonzero"></path>
  </symbol>
</svg>