<svg width="0" height="0" class="hidden">
  <symbol fill="none" xmlns="http://www.w3.org/2000/svg" xmlns:xlink="http://www.w3.org/1999/xlink" viewBox="0 0 36 36" id="dokument">
    <desc>Created with Pixso.</desc>
    <defs></defs>
    <rect id="Frame 34" width="36.000000" height="36.000000" fill="#FFFFFF" fill-opacity="0"></rect>
    <path id="Vector" d="M27.2216 9.35938L22.6826 4.82031C22.1904 4.32812 21.4794 4 20.8232 4L9.66693 4C8.19037 4.05469 7.04193 5.20312 7.04193 6.67969L7.04193 13.0781C6.71381 13.0781 6.38568 13.0234 5.67474 12.8047C5.62006 12.8047 5.51068 12.8047 5.40131 12.8047C5.12787 12.8047 4.85443 12.9141 4.69037 13.0781C3.70599 14.1172 3.76068 14.0625 2.39349 14.4453C2.01068 14.5547 1.73724 14.8281 1.62787 15.2109C1.29974 16.5781 1.29974 16.5234 0.315369 17.5078C0.0419312 17.7812 -0.0674438 18.2188 0.0419312 18.6016C0.424744 19.9141 0.424744 19.9141 0.0419312 21.2266C-0.0674438 21.6094 0.0419312 22.0469 0.315369 22.3203C1.29974 23.3047 1.29974 23.3047 1.62787 24.6172C1.73724 25 2.01068 25.2734 2.39349 25.3828C2.50287 25.4375 2.55756 25.4375 2.66693 25.4375L2.66693 31.125C2.66693 31.4531 2.77631 31.7266 3.04974 31.8906C3.32318 32.0547 3.65131 32.0547 3.92474 31.9453L7.04193 30.3594L10.1044 31.9453C10.2685 32 10.3779 32 10.5419 32L25.4169 32C26.8388 32 28.0419 30.8516 28.0419 29.4297L28.0419 11.2188C28.0419 10.5625 27.7138 9.85156 27.2216 9.35938ZM21.0419 5.80469C21.1513 5.85938 21.3154 5.91406 21.4247 6.02344L26.0185 10.6172C26.1279 10.7266 26.1826 10.8906 26.2372 11.0547L21.0419 11.0547L21.0419 5.80469ZM1.84662 21.3359C2.12006 20.1328 2.12006 19.6953 1.84662 18.4922C2.66693 17.6172 2.88568 17.2344 3.21381 16.0312C4.41693 15.7031 4.74506 15.4844 5.62006 14.6094C6.16693 14.7734 6.54974 14.8281 7.04193 14.8281C7.47943 14.8281 7.86224 14.7734 8.40912 14.6094C9.22943 15.4844 9.61224 15.7031 10.8154 16.0312C11.1435 17.2344 11.3076 17.5625 12.1826 18.4922C11.8544 19.6953 11.8544 20.1328 12.1826 21.3359C11.3622 22.2109 11.1435 22.5938 10.8154 23.7969C9.99506 24.0156 9.50287 24.1797 8.73724 24.8359C8.19037 24.6172 7.64349 24.5078 7.04193 24.5078C6.38568 24.5078 5.83881 24.6172 5.29193 24.8906C4.52631 24.2344 4.03412 24.0156 3.21381 23.7969C2.88568 22.5938 2.72162 22.2656 1.84662 21.3359ZM7.42474 28.6094C7.15131 28.5 6.87787 28.5 6.60443 28.6094L4.41693 29.7578L4.41693 26.4219C4.41693 26.4766 4.41693 26.4766 4.41693 26.4766C4.63568 26.6953 4.90912 26.75 5.12787 26.75C5.34662 26.75 5.51068 26.6953 5.72943 26.6406C6.11224 26.3672 6.54974 26.2578 7.04193 26.2578C7.47943 26.2578 7.91693 26.3672 8.29974 26.5859C8.51849 26.75 8.68256 26.75 8.90131 26.75C9.17474 26.75 9.39349 26.6953 9.61224 26.4766C9.61224 26.4766 9.61224 26.4766 9.66693 26.4219L9.66693 29.7578L7.42474 28.6094ZM26.2919 29.4297C26.2919 29.8672 25.8544 30.3047 25.4169 30.3047L11.4169 30.3047L11.4169 25.4375C11.4716 25.4375 11.5263 25.4375 11.6357 25.3828C12.0185 25.2734 12.2919 25 12.4013 24.6172C12.7294 23.25 12.7294 23.3047 13.7138 22.3203C13.9872 22.0469 14.0966 21.6094 13.9872 21.2266C13.6044 19.9141 13.6044 19.9141 13.9872 18.6016C14.0966 18.2188 13.9872 17.7812 13.7138 17.5078C12.7294 16.5234 12.7294 16.5234 12.4013 15.2109C12.2919 14.8281 12.0185 14.5547 11.6357 14.4453C10.3232 14.0625 10.3232 14.1172 9.33881 13.0781C9.17474 12.9141 8.95599 12.8594 8.79193 12.8047L8.79193 6.67969C8.79193 6.1875 9.17474 5.75 9.66693 5.75L19.2919 5.75L19.2919 11.4922C19.2919 12.2031 19.8388 12.75 20.6044 12.75L26.2919 12.75L26.2919 29.4297Z" fill="#5C8EE6" fill-opacity="1.000000" fill-rule="evenodd"></path>
  </symbol>
  <symbol fill="none" xmlns="http://www.w3.org/2000/svg" xmlns:xlink="http://www.w3.org/1999/xlink" viewBox="0 0 36 36" id="human">
    <desc>Created with Pixso.</desc>
    <defs></defs>
    <rect id="Frame 33" width="36.000000" height="36.000000" fill="#FFFFFF" fill-opacity="0"></rect>
    <path id="Vector" d="M17.1172 23.25C15.5312 23.25 14.8203 24.125 12.25 24.125C9.625 24.125 8.91406 23.25 7.32812 23.25C3.28125 23.25 0 26.5859 0 30.6328C0 31.3984 0.601562 32 1.36719 32L23.0781 32C23.8438 32 24.5 31.3984 24.5 30.6328C24.5 26.5859 21.1641 23.25 17.1172 23.25ZM1.75 30.25C1.91406 27.3516 4.375 25.0547 7.32812 25C8.42188 25 9.46094 25.875 12.25 25.875C15.0391 25.875 16.0234 25 17.1172 25C20.0703 25.0547 22.5312 27.3516 22.6953 30.25L1.75 30.25ZM4.8125 12.75L5.46875 12.75C5.30469 13.3516 5.25 13.8984 5.25 14.5C5.25 18.3828 8.36719 21.5 12.25 21.5C16.0781 21.5 19.25 18.3828 19.25 14.5C19.1953 13.8984 19.1406 13.3516 18.9766 12.75L19.6875 12.75C19.9062 12.75 20.125 12.5859 20.125 12.3125L20.125 11.4375C20.125 11.2188 19.9062 11 19.6875 11L19.25 11C19.25 8.21094 17.3359 5.85938 14.7109 5.14844C14.4922 4.49219 13.8359 4.05469 13.125 4L11.375 4C10.6094 4.05469 9.95312 4.49219 9.73438 5.14844C7.16406 5.85938 5.25 8.21094 5.25 11L4.8125 11C4.53906 11 4.375 11.2188 4.375 11.4375L4.375 12.3125C4.375 12.5859 4.53906 12.75 4.8125 12.75ZM14.875 7.00781C16.4062 7.71875 17.4453 9.25 17.5 11L14.875 11L14.875 7.00781ZM11.375 5.75L13.125 5.75L13.125 11L11.375 11L11.375 5.75ZM7 11C7 9.25 8.03906 7.71875 9.625 7.00781L9.625 11L7 11ZM7.32812 12.75L17.1719 12.75C17.3359 13.2969 17.4453 13.8984 17.5 14.5C17.5 17.3984 15.0938 19.75 12.25 19.75C9.35156 19.75 7 17.3984 7 14.5C7 13.8984 7.10938 13.2969 7.32812 12.75Z" fill="#5C8EE6" fill-opacity="1.000000" fill-rule="evenodd"></path>
  </symbol>
  <symbol fill="none" xmlns="http://www.w3.org/2000/svg" xmlns:xlink="http://www.w3.org/1999/xlink" viewBox="0 0 36 36" id="production">
    <desc>Created with Pixso.</desc>
    <defs></defs>
    <rect id="Frame 37" width="36.000000" height="36.000000" fill="#FFFFFF" fill-opacity="0"></rect>
    <path id="Vector" d="M11.625 13.875C10.6406 13.875 9.875 14.6953 9.875 15.625C9.875 16.6094 10.6406 17.375 11.625 17.375C12.5547 17.375 13.375 16.6094 13.375 15.625C13.375 14.6953 12.5547 13.875 11.625 13.875ZM17.75 6C9.05469 6 2 13.0547 2 21.75C2 24.6484 2.76562 27.3828 4.13281 29.6797C4.40625 30.2266 5.00781 30.5547 5.60938 30.5547L29.8359 30.5547C30.4375 30.5547 31.0391 30.2266 31.3672 29.6797C32.6797 27.3828 33.5 24.6484 33.5 21.75C33.5 13.0547 26.4453 6 17.75 6ZM17.75 27.875C16.4922 27.875 15.5625 26.9453 15.5625 25.6875C15.5625 24.4844 16.4922 23.5 17.75 23.5C18.9531 23.5 19.9375 24.4844 19.9375 25.6875C19.9375 26.9453 18.9531 27.875 17.75 27.875ZM29.3438 27.875L22.0156 27.875C22.3438 27.2188 22.5625 26.5078 22.5625 25.6875C22.5625 25.3594 22.5078 25.0312 22.3984 24.7031L27.4297 22.5703C28.0859 22.2422 28.4141 21.4766 28.1406 20.8203C27.8125 20.1641 27.0469 19.8359 26.3906 20.1094L21.1953 22.3516C20.3203 21.4766 19.0625 20.875 17.75 20.875C15.0703 20.875 12.9375 23.0625 12.9375 25.6875C12.9375 26.5078 13.1016 27.2188 13.4844 27.875L6.10156 27.875C5.11719 26.0156 4.625 23.9375 4.625 21.75C4.625 14.5312 10.4766 8.625 17.75 8.625C24.9688 8.625 30.875 14.5312 30.875 21.75C30.875 23.9375 30.3281 26.0156 29.3438 27.875ZM9 20C8.01562 20 7.25 20.8203 7.25 21.75C7.25 22.7344 8.01562 23.5 9 23.5C9.92969 23.5 10.75 22.7344 10.75 21.75C10.75 20.8203 9.92969 20 9 20ZM17.75 11.25C16.7656 11.25 16 12.0703 16 13C16 13.9844 16.7656 14.75 17.75 14.75C18.6797 14.75 19.5 13.9844 19.5 13C19.5 12.0703 18.6797 11.25 17.75 11.25ZM23.875 13.875C22.8906 13.875 22.125 14.6953 22.125 15.625C22.125 16.6094 22.8906 17.375 23.875 17.375C24.8047 17.375 25.625 16.6094 25.625 15.625C25.625 14.6953 24.8047 13.875 23.875 13.875Z" fill="#5C8EE6" fill-opacity="1.000000" fill-rule="nonzero"></path>
  </symbol>
  <symbol fill="none" xmlns="http://www.w3.org/2000/svg" xmlns:xlink="http://www.w3.org/1999/xlink" viewBox="0 0 36 36" id="time">
    <desc>Created with Pixso.</desc>
    <defs></defs>
    <rect id="Frame 36" width="36.000000" height="36.000000" fill="#FFFFFF" fill-opacity="0"></rect>
    <path id="Vector" d="M20.125 5.75L20.3438 5.75C20.6719 5.75 21 5.47656 21 5.09375L21 4.65625C21 4.32812 20.6719 4 20.3438 4L0.65625 4C0.273438 4 0 4.32812 0 4.65625L0 5.09375C0 5.47656 0.273438 5.75 0.65625 5.75L0.875 5.75C0.875 10.7812 3.28125 16.3594 7.92969 18C3.22656 19.6953 0.875 25.2734 0.875 30.25L0.65625 30.25C0.273438 30.25 0 30.5781 0 30.9062L0 31.3438C0 31.7266 0.273438 32 0.65625 32L20.3438 32C20.6719 32 21 31.7266 21 31.3438L21 30.9062C21 30.5781 20.6719 30.25 20.3438 30.25L20.125 30.25C20.125 25.2734 17.6641 19.6953 13.0156 18C17.7188 16.3594 20.125 10.7812 20.125 5.75ZM2.625 5.75L18.375 5.75C18.375 11.8203 14.8203 16.6875 10.5 16.6875C6.125 16.6875 2.625 11.8203 2.625 5.75ZM18.375 30.25L2.625 30.25C2.625 24.2344 6.125 19.3125 10.5 19.3125C14.8203 19.3125 18.375 24.2344 18.375 30.25ZM14.7109 12.0391C15.0391 11.6562 14.7109 11 14.1641 11L6.78125 11C6.23438 11 5.90625 11.6562 6.23438 12.0391C6.34375 12.2031 6.45312 12.3672 6.61719 12.5312C6.72656 12.6953 6.89062 12.75 7.10938 12.75L13.8359 12.75C14.0547 12.75 14.2188 12.6953 14.3281 12.5312C14.4922 12.3672 14.6016 12.2031 14.7109 12.0391ZM5.35938 26.75C5.03125 26.75 4.8125 26.9688 4.70312 27.2422C4.70312 27.4062 4.64844 27.5703 4.59375 27.7344C4.53906 28.1172 4.8125 28.5 5.25 28.5L15.6953 28.5C16.1328 28.5 16.4062 28.1172 16.3516 27.7344C16.2969 27.5703 16.2422 27.4062 16.2422 27.2422C16.1328 26.9688 15.9141 26.75 15.5859 26.75L5.35938 26.75Z" fill="#5C8EE6" fill-opacity="1.000000" fill-rule="nonzero"></path>
  </symbol>
  <symbol fill="none" xmlns="http://www.w3.org/2000/svg" xmlns:xlink="http://www.w3.org/1999/xlink" viewBox="0 0 36 36" id="trucks">
    <desc>Created with Pixso.</desc>
    <defs></defs>
    <rect id="Frame 35" width="36.000000" height="36.000000" fill="#FFFFFF" fill-opacity="0"></rect>
    <path id="Vector" d="M1.75 21.5L20.125 21.5C21.0547 21.5 21.875 20.7344 21.875 19.75L21.875 7.5C21.875 6.57031 21.0547 5.75 20.125 5.75L1.75 5.75C0.765625 5.75 0 6.57031 0 7.5L0 19.75C0 20.7344 0.765625 21.5 1.75 21.5ZM1.75 7.5L20.125 7.5L20.125 19.75L1.75 19.75L1.75 7.5ZM33.9609 15.2656L30.7344 12.0391C30.0781 11.3828 29.2031 11.0547 28.2734 11.0547L24.5 11.0547C24.0078 11.0547 23.625 11.4375 23.625 11.9297L23.625 23.3047L12.4688 23.3047C11.8125 22.7578 10.9922 22.4297 10.0625 22.4297C8.80469 22.4297 7.71094 22.9766 7 23.9062C6.23438 22.9766 5.14062 22.375 3.9375 22.375C1.75 22.375 0 24.1797 0 26.3125C0 28.5 1.75 30.25 3.9375 30.25C5.14062 30.25 6.23438 29.7031 7 28.7734C7.71094 29.7031 8.80469 30.25 10.0625 30.25C12.1953 30.25 14 28.5 14 26.3125C14 25.875 13.8906 25.4375 13.7266 25L24.5547 25C24.3906 25.7656 24.4453 26.5312 24.7188 27.3516C25.1562 28.7188 26.3594 29.8125 27.7812 30.1406C30.625 30.8516 33.25 28.6641 33.25 25.875C33.25 25.6016 33.1953 25.3281 33.1406 25L34.125 25C34.5625 25 35 24.6172 35 24.125L35 17.7266C35 16.7969 34.6172 15.9219 33.9609 15.2656ZM3.9375 28.5C2.67969 28.5 1.75 27.5703 1.75 26.3125C1.75 25.1094 2.67969 24.125 3.9375 24.125C5.14062 24.125 6.125 25.1094 6.125 26.3125C6.125 27.5703 5.14062 28.5 3.9375 28.5ZM10.0625 28.5C8.80469 28.5 7.875 27.5703 7.875 26.3125C7.875 25.1094 8.80469 24.125 10.0625 24.125C11.2656 24.125 12.25 25.1094 12.25 26.3125C12.25 27.5703 11.2656 28.5 10.0625 28.5ZM25.375 12.75L28.2734 12.75C28.7656 12.75 29.2031 12.9688 29.5312 13.2969L32.4844 16.25L25.375 16.25L25.375 12.75ZM28.875 28.5C27.3984 28.5 26.25 27.3516 26.25 25.875C26.25 24.4531 27.3984 23.25 28.875 23.25C30.2969 23.25 31.5 24.4531 31.5 25.875C31.5 27.3516 30.2969 28.5 28.875 28.5ZM33.25 23.25L32.3203 23.25C31.5547 22.2109 30.2969 21.5 28.875 21.5C27.3984 21.5 26.1953 22.2109 25.375 23.25L25.375 18L33.25 18L33.25 23.25ZM5.6875 18L6.5625 18C6.78125 18 7 17.8359 7 17.5625L7 9.6875C7 9.46875 6.78125 9.25 6.5625 9.25L5.6875 9.25C5.41406 9.25 5.25 9.46875 5.25 9.6875L5.25 17.5625C5.25 17.8359 5.41406 18 5.6875 18ZM10.9375 18L11.8125 18C12.0312 18 12.25 17.8359 12.25 17.5625L12.25 9.6875C12.25 9.46875 12.0312 9.25 11.8125 9.25L10.9375 9.25C10.6641 9.25 10.5 9.46875 10.5 9.6875L10.5 17.5625C10.5 17.8359 10.6641 18 10.9375 18ZM16.1875 18L17.0625 18C17.2812 18 17.5 17.8359 17.5 17.5625L17.5 9.6875C17.5 9.46875 17.2812 9.25 17.0625 9.25L16.1875 9.25C15.9141 9.25 15.75 9.46875 15.75 9.6875L15.75 17.5625C15.75 17.8359 15.9141 18 16.1875 18Z" fill="#5C8EE6" fill-opacity="1.000000" fill-rule="evenodd"></path>
  </symbol>
</svg>